<?xml version="1.0" encoding="iso-8859-1"?>
<!-- Generator: Adobe Illustrator 16.0.0, SVG Export Plug-In . SVG Version: 6.00 Build 0)  -->
<!DOCTYPE svg PUBLIC "-//W3C//DTD SVG 1.1//EN" "http://www.w3.org/Graphics/SVG/1.1/DTD/svg11.dtd">
<svg version="1.1" xmlns="http://www.w3.org/2000/svg" xmlns:xlink="http://www.w3.org/1999/xlink" x="0px" y="0px"
	 width="473.537px" height="473.538px" viewBox="0 0 473.537 473.538" style="enable-background:new 0 0 473.537 473.538;"
	 xml:space="preserve">
<g>
	<g id="iconos_44_" style="fill: #62686f">
		<path d="M350.795,362.93l-116.901-61.936c3.519,8.836,12.354,15.004,23.217,22.558c5.135,3.567,10.441,7.267,15.901,11.704
			c5.125,4.169,11.811,10.567,10.614,18.064c-1.367,8.558-11.666,12.517-22.567,16.706c-12.489,4.8-58.685,18.235-78.938,23.753
			l-7.717,2.132c-19.441,5.374-43.624,12.087-66.498,14.745c-13.636,1.578-28.668,10.624-40.746,17.891
			c-10.452,6.283-27.655,13.206-29.328,13.206h-2.152c-3.624,0-8.195-0.21-12.89-1.253L3.359,472.898L350.795,362.93z"/>
		<path d="M464.445,18.289C451.086-0.56,424.971-5.016,406.123,8.343L287.146,92.666c-17.126,12.135-22.204,34.741-13.005,52.919
			l-32.475,23.074c-2.523,1.807-4.025,4.714-4.025,7.803v94.61L223.7,283.876c4.227,2.764,7.631,6.741,9.056,13.444
			c0.239,1.147,0.612,2.22,1.015,3.271l19.899-18.284c1.979-1.807,3.099-4.351,3.099-7.038v-93.875l29.146-20.722
			c14.219,11.944,35.133,13.445,50.997,2.209L455.888,78.56c18.849-13.359,23.305-39.474,9.945-58.322L464.445,18.289z"/>
		<path d="M119.488,263.423c-10.93,6.225-19.909,21.028-19.909,30.112c0,1.396-0.316,2.696-0.574,4.025
			c-1.167,5.91-4.667,11.064-9.247,15.405c-6.493,6.168-14.87,10.786-21.066,13.606c-38.403,17.5-56.495,33.269-64.537,56.257
			c-2.85,10.758-6.187,32.101-2.582,38.766c3.519,6.493,9.591,9.209,16.897,10.165c2.448,0.307,5.001,0.43,7.66,0.43h2.152
			c1.846,0,8.549-2.381,8.549-2.381s9.715-4.81,17.442-9.457c12.871-7.746,28.076-17.375,43.768-19.211
			c22.128-2.571,45.527-9.161,64.652-14.459l7.554-2.142c20.55-5.604,66.134-18.924,77.13-23.16
			c7.181-2.754,16.792-6.474,17.289-9.582c0.077-0.488,0.067-3.213-7.229-9.142c-5.184-4.208-10.356-7.794-15.339-11.266
			c-13.492-9.381-25.148-17.49-28.256-32.082c-0.937-4.427-3.299-6.694-7.152-8.597c-1.979-0.976-4.294-1.903-7.221-2.897
			c-0.2-0.066-0.335-0.124-0.545-0.201c-6.837-2.313-15.243-5.298-23.103-12.336c-0.421-0.373-0.841-0.622-1.262-1.022
			c-8.301-7.976-18.17-12.938-28.372-14.679c-2.582-0.439-5.174-0.821-7.774-0.821c-5.891,0-11.638,1.167-16.61,3.355
			C121.009,262.467,120.263,262.983,119.488,263.423z"/>
	</g>
</g>
</svg>
